<?xml version="1.0" encoding="UTF-8"?>
<svg version="1.1" xmlns="http://www.w3.org/2000/svg" width="108" height="100">
<path d="M0 0 C0.87591797 0.00322266 1.75183594 0.00644531 2.65429688 0.00976562 C3.52634766 -0.00634766 4.39839844 -0.02246094 5.296875 -0.0390625 C6.55467773 -0.0400293 6.55467773 -0.0400293 7.83789062 -0.04101562 C8.60544678 -0.04399658 9.37300293 -0.04697754 10.16381836 -0.05004883 C12.8079193 0.42946763 13.55901752 1.23221789 15.21679688 3.32226562 C15.57756042 5.3914032 15.57756042 5.3914032 15.55737305 7.79370117 C15.55714645 8.69440842 15.55691986 9.59511566 15.5566864 10.52311707 C15.54120255 11.49195328 15.52571869 12.46078949 15.50976562 13.45898438 C15.50552078 14.45356155 15.50127594 15.44813873 15.49690247 16.47285461 C15.4800984 19.65209937 15.44244264 22.83071219 15.40429688 26.00976562 C15.38925229 28.16405335 15.37556349 30.318351 15.36328125 32.47265625 C15.33018932 37.7560753 15.2799728 43.03912532 15.21679688 48.32226562 C16.46291748 48.31179199 17.70903809 48.30131836 18.99291992 48.29052734 C23.6240755 48.25427818 28.25521857 48.23134719 32.88647461 48.21240234 C34.88942576 48.20235599 36.89236229 48.18871653 38.89526367 48.17138672 C41.77721775 48.1470785 44.65897759 48.13576876 47.54101562 48.12695312 C48.43390793 48.11663055 49.32680023 48.10630798 50.24674988 48.09567261 C54.6707549 48.09487748 58.21899702 48.17754247 62.21679688 50.32226562 C63.76752835 51.8729971 63.34648816 53.35288816 63.34960938 55.50585938 C63.35089844 56.35083984 63.3521875 57.19582031 63.35351562 58.06640625 C63.34964844 58.95521484 63.34578125 59.84402344 63.34179688 60.75976562 C63.34566406 61.64470703 63.34953125 62.52964844 63.35351562 63.44140625 C63.35222656 64.28767578 63.3509375 65.13394531 63.34960938 66.00585938 C63.34848145 66.78501709 63.34735352 67.5641748 63.34619141 68.36694336 C63.21679688 70.32226563 63.21679688 70.32226563 62.21679688 72.32226562 C38.78679688 72.32226562 15.35679688 72.32226562 -8.78320312 72.32226562 C-8.82445312 60.81351563 -8.86570312 49.30476563 -8.90820312 37.44726562 C-8.92641113 33.81098145 -8.94461914 30.17469727 -8.96337891 26.42822266 C-8.97241211 21.99389648 -8.97241211 21.99389648 -8.97409058 19.91915894 C-8.97716531 18.4675677 -8.98420677 17.01598163 -8.99435425 15.56442261 C-9.00894437 13.36789043 -9.01101681 11.17167086 -9.01025391 8.97509766 C-9.01469513 7.7359964 -9.01913635 6.49689514 -9.02371216 5.22024536 C-8.53314657 -0.69075562 -4.85175965 0.04108495 0 0 Z " fill="#010101" transform="translate(8.783203125,27.677734375)"/>
<path d="M0 0 C32.67 0 65.34 0 99 0 C99 0.66 99 1.32 99 2 C99.66 2 100.32 2 101 2 C101.30389967 4.72907918 101.5687825 7.45294492 101.8125 10.1875 C101.90208984 10.95642578 101.99167969 11.72535156 102.08398438 12.51757812 C102.17583008 13.64389648 102.17583008 13.64389648 102.26953125 14.79296875 C102.33760986 15.4789917 102.40568848 16.16501465 102.47583008 16.87182617 C101.65626991 20.53735002 100.00764543 21.81136854 97 24 C93.48610127 24.77562949 90.02622551 24.78583121 86.4375 24.8046875 C85.3853833 24.82868622 84.3332666 24.85268494 83.24926758 24.87741089 C79.83263549 24.94613084 76.41722213 24.97640239 73 25 C71.86884766 25.01309204 70.73769531 25.02618408 69.57226562 25.03967285 C62.57114197 25.12011405 55.57136517 25.14288588 48.56982422 25.13037109 C44.97489287 25.12496222 41.3800841 25.13038365 37.78515625 25.13671875 C9.69409823 25.14782155 9.69409823 25.14782155 2 24 C1.34 23.34 0.68 22.68 0 22 C0 14.74 0 7.48 0 0 Z " fill="#020202" transform="translate(0,0)"/>
<path d="M0 0 C0.6526947 2.88415527 0.6526947 2.88415527 0.69116211 6.44335938 C0.7048584 7.0924678 0.71855469 7.74157623 0.73266602 8.41035461 C0.77164936 10.55523005 0.77504626 12.69854604 0.77734375 14.84375 C0.79553999 16.33445595 0.81563156 17.82513988 0.83753967 19.3157959 C0.87833513 22.43960653 0.9027019 25.56295851 0.91430664 28.68701172 C0.92956865 32.69247524 0.9753695 36.69682886 1.0321722 40.70189667 C1.07419344 43.77986383 1.10516747 46.85785761 1.13226509 49.93598938 C1.14562052 51.41280794 1.16121877 52.88960797 1.1790905 54.36637878 C1.2013839 56.42989824 1.21005323 58.49301542 1.21459961 60.55664062 C1.22528725 62.31844666 1.22528725 62.31844666 1.2361908 64.11584473 C1 67 1 67 -1 70 C-3.33837891 70.34057617 -3.33837891 70.34057617 -6.2265625 70.29296875 C-7.2578125 70.28330078 -8.2890625 70.27363281 -9.3515625 70.26367188 C-10.97191406 70.2259668 -10.97191406 70.2259668 -12.625 70.1875 C-13.71296875 70.17396484 -14.8009375 70.16042969 -15.921875 70.14648438 C-18.61507409 70.11104754 -21.30729374 70.06164331 -24 70 C-25.42134789 67.15730422 -25.1430109 64.7408367 -25.16113281 61.5625 C-25.16609772 60.90217773 -25.17106262 60.24185547 -25.17617798 59.56152344 C-25.19079939 57.37433843 -25.19760043 55.18722587 -25.203125 53 C-25.20887513 51.48307289 -25.21463287 49.96614581 -25.22039795 48.44921875 C-25.23090694 45.26822571 -25.23675071 42.08725796 -25.24023438 38.90625 C-25.24572828 34.82366641 -25.26977547 30.7414148 -25.29820633 26.65893555 C-25.31679574 23.5260316 -25.32203625 20.39320836 -25.32357025 17.26025391 C-25.32660416 15.75470152 -25.33465746 14.24915081 -25.34775543 12.74365234 C-25.36474458 10.64134127 -25.36295424 8.53985119 -25.35644531 6.4375 C-25.36009094 5.23996094 -25.36373657 4.04242188 -25.36749268 2.80859375 C-25.24622009 1.88175781 -25.12494751 0.95492188 -25 0 C-21.24908033 -2.50061311 -17.98986505 -2.55812864 -13.625 -2.8125 C-12.86960937 -2.87630859 -12.11421875 -2.94011719 -11.3359375 -3.00585938 C-10.59859375 -3.05162109 -9.86125 -3.09738281 -9.1015625 -3.14453125 C-8.43463379 -3.18940674 -7.76770508 -3.23428223 -7.08056641 -3.28051758 C-4.05900312 -2.87312774 -2.40218563 -1.87660262 0 0 Z " fill="#020202" transform="translate(101,30)"/>
<path d="M0 0 C0.92361328 -0.01611328 1.84722656 -0.03222656 2.79882812 -0.04882812 C4.12237305 -0.04979492 4.12237305 -0.04979492 5.47265625 -0.05078125 C6.280979 -0.05376221 7.08930176 -0.05674316 7.92211914 -0.05981445 C8.91973267 0.1244812 8.91973267 0.1244812 9.9375 0.3125 C12.7130772 4.47586579 12.34227059 7.91763503 12.375 12.8125 C12.40787109 13.68003906 12.44074219 14.54757813 12.47460938 15.44140625 C12.5276957 21.68628842 12.5276957 21.68628842 9.953125 24.41796875 C5.90180699 25.61971982 2.42855937 25.4758714 -1.75 25.125 C-2.52150391 25.08052734 -3.29300781 25.03605469 -4.08789062 24.99023438 C-9.78800517 24.58699483 -9.78800517 24.58699483 -12.0625 22.3125 C-13.48664199 15.90386104 -13.82668563 8.81717529 -13.0625 2.3125 C-8.77851146 -0.54349236 -5.03608477 -0.01764571 0 0 Z " fill="#020202" transform="translate(60.0625,47.6875)"/>
<path d="M0 0 C0.92361328 -0.01611328 1.84722656 -0.03222656 2.79882812 -0.04882812 C4.12237305 -0.04979492 4.12237305 -0.04979492 5.47265625 -0.05078125 C6.280979 -0.05376221 7.08930176 -0.05674316 7.92211914 -0.05981445 C8.91973267 0.1244812 8.91973267 0.1244812 9.9375 0.3125 C12.39141569 3.99337353 12.16552759 6.75605588 12.0625 11 C12.05347656 11.70189453 12.04445313 12.40378906 12.03515625 13.12695312 C12.01163704 14.85561525 11.97576713 16.58410145 11.9375 18.3125 C9.9375 16.3125 9.9375 16.3125 9.7421875 14.3671875 C9.80729167 12.34895833 9.87239583 10.33072917 9.9375 8.3125 C7.9575 7.6525 5.9775 6.9925 3.9375 6.3125 C4.9275 5.9825 5.9175 5.6525 6.9375 5.3125 C6.2775 4.9825 5.6175 4.6525 4.9375 4.3125 C4.9375 3.6525 4.9375 2.9925 4.9375 2.3125 C1.3075 2.3125 -2.3225 2.3125 -6.0625 2.3125 C-5.7325 3.3025 -5.4025 4.2925 -5.0625 5.3125 C-5.7225 5.9725 -6.3825 6.6325 -7.0625 7.3125 C-7.0625 6.6525 -7.0625 5.9925 -7.0625 5.3125 C-8.3825 6.3025 -9.7025 7.2925 -11.0625 8.3125 C-11.7225 7.6525 -12.3825 6.9925 -13.0625 6.3125 C-13.0625 4.9925 -13.0625 3.6725 -13.0625 2.3125 C-8.77851146 -0.54349236 -5.03608477 -0.01764571 0 0 Z " fill="#0B0A0B" transform="translate(60.0625,47.6875)"/>
<path d="M0 0 C0.33 0.66 0.66 1.32 1 2 C2.32 1.67 3.64 1.34 5 1 C4.875 2.875 4.875 2.875 4 5 C0.9375 6.25 0.9375 6.25 -2 7 C-2.33 6.01 -2.66 5.02 -3 4 C-2.67 3.34 -2.34 2.68 -2 2 C-1.34 2 -0.68 2 0 2 C0 1.34 0 0.68 0 0 Z " fill="#080808" transform="translate(67,66)"/>
<path d="M0 0 C3 1 3 1 5 3 C4.34 3 3.68 3 3 3 C3 3.99 3 4.98 3 6 C1.35 5.67 -0.3 5.34 -2 5 C-2 4.01 -2 3.02 -2 2 C-1.34 2 -0.68 2 0 2 C0 1.34 0 0.68 0 0 Z " fill="#070709" transform="translate(3,18)"/>
</svg>
